<?xml version="1.0" standalone="no"?>
<!DOCTYPE svg PUBLIC "-//W3C//DTD SVG 20010904//EN"
 "http://www.w3.org/TR/2001/REC-SVG-20010904/DTD/svg10.dtd">
<svg version="1.0" xmlns="http://www.w3.org/2000/svg"
 width="779.000000pt" height="314.000000pt" viewBox="0 0 779.000000 314.000000"
 preserveAspectRatio="xMidYMid meet">

<g transform="translate(0.000000,314.000000) scale(0.100000,-0.100000)"
fill="#000000" stroke="none">
<path d="M4020 2973 c-14 -2 -51 -9 -82 -15 -50 -10 -55 -13 -40 -25 15 -13
15 -13 -6 -8 -56 16 -140 6 -127 -15 3 -4 -4 -10 -15 -13 -11 -3 -18 -2 -15 2
2 5 -7 6 -20 3 -14 -2 -22 -8 -19 -13 3 -5 -7 -9 -23 -9 -15 0 -53 -12 -83
-27 -30 -14 -57 -27 -60 -28 -29 -8 -80 -41 -80 -52 0 -7 -6 -10 -16 -6 -10 4
-17 -2 -21 -17 -3 -13 -8 -17 -13 -11 -4 8 -20 1 -45 -19 -21 -16 -41 -30 -45
-30 -4 0 -52 -44 -106 -97 -100 -99 -149 -153 -138 -153 3 0 -9 -12 -26 -26
-17 -15 -29 -29 -26 -31 2 -3 -3 -13 -12 -24 -9 -10 -31 -45 -48 -77 -27 -51
-33 -57 -58 -54 -17 2 -26 0 -22 -6 4 -7 -6 -10 -24 -10 -17 1 -36 -4 -42 -10
-6 -6 -17 -8 -26 -5 -10 4 -13 2 -8 -5 4 -8 2 -10 -8 -6 -20 8 -139 -26 -149
-43 -4 -7 -18 -13 -30 -13 -12 0 -31 -7 -41 -15 -11 -8 -17 -15 -13 -15 4 0
-8 -14 -27 -30 -41 -37 -39 -66 8 -78 26 -7 32 -6 34 10 4 21 30 24 38 5 7
-20 74 -9 75 12 0 14 1 14 7 1 4 -9 13 -15 20 -14 6 1 33 2 58 3 27 1 43 5 39
11 -3 6 3 10 14 10 29 0 33 -13 18 -56 -7 -22 -13 -46 -12 -54 1 -8 -2 -19 -6
-25 -8 -13 -16 -48 -24 -105 -3 -25 -8 -54 -10 -65 -2 -11 -4 -40 -4 -65 -1
-44 -2 -46 -41 -58 -22 -6 -51 -12 -64 -12 -14 0 -36 -4 -50 -10 -14 -5 -47
-12 -73 -16 -87 -11 -242 -43 -262 -53 -11 -6 -29 -11 -40 -11 -12 0 -20 -6
-19 -12 2 -7 -4 -13 -12 -14 -8 0 -28 -6 -45 -13 -16 -6 -36 -14 -42 -16 -31
-11 -4 -116 34 -136 13 -7 23 -16 23 -20 0 -5 15 -7 33 -5 44 4 167 38 162 45
-1 3 35 7 82 8 47 0 88 5 92 10 3 4 30 9 60 11 29 1 71 9 92 16 21 8 39 10 39
5 0 -5 7 -6 15 -3 8 3 22 -1 30 -10 9 -9 12 -16 6 -16 -10 0 -10 -6 4 -45 4
-11 8 -33 9 -50 1 -21 5 -29 16 -27 11 3 12 0 4 -8 -11 -11 0 -68 24 -132 9
-22 8 -28 -6 -34 -9 -4 -21 -6 -26 -5 -4 1 -22 -2 -40 -8 -126 -37 -177 -55
-182 -62 -3 -5 -14 -9 -25 -9 -10 0 -19 -4 -19 -8 0 -5 -16 -15 -35 -22 -30
-12 -35 -19 -33 -40 2 -19 -2 -26 -18 -28 -14 -2 -24 -12 -26 -27 -3 -15 -1
-22 7 -19 7 3 15 -2 19 -11 3 -9 11 -13 16 -10 6 4 9 1 8 -7 -4 -17 29 -17
107 0 33 7 103 18 155 26 52 7 100 14 105 16 6 1 31 2 57 1 35 -1 48 -5 52
-19 4 -9 16 -28 27 -42 11 -14 17 -19 13 -11 -4 9 -3 12 4 7 6 -4 9 -13 5 -21
-3 -9 1 -15 9 -15 7 0 19 -14 25 -31 7 -17 17 -28 22 -24 6 3 8 0 5 -9 -4 -10
2 -15 18 -18 16 -2 23 -10 24 -25 1 -27 23 -55 35 -47 5 3 9 0 9 -6 0 -19 82
-99 165 -161 44 -33 86 -65 94 -71 8 -7 28 -11 45 -11 26 2 28 0 11 -7 -17 -7
-17 -9 -2 -9 9 -1 26 -10 38 -22 11 -11 27 -18 34 -15 7 2 16 -2 19 -11 4 -8
13 -13 21 -9 8 3 23 -3 33 -14 18 -19 92 -26 92 -9 0 4 9 7 20 6 27 -2 25 -9
-7 -29 l-28 -17 28 -1 c15 0 27 5 27 10 0 6 4 10 9 10 5 0 7 -10 4 -21 -5 -19
-3 -21 20 -15 18 4 27 2 27 -6 0 -9 3 -9 12 0 14 14 58 16 58 3 0 -4 -11 -6
-25 -3 -14 2 -25 0 -25 -7 0 -6 8 -10 18 -9 9 1 33 0 52 -1 28 -1 32 -4 20
-12 -12 -8 -10 -9 8 -4 14 4 22 2 22 -5 0 -9 16 -10 53 -6 36 4 47 3 37 -4
-12 -8 -9 -10 12 -10 14 0 29 6 31 13 4 9 6 9 6 0 1 -7 8 -10 18 -6 11 4 14 3
9 -5 -5 -8 0 -12 14 -12 12 0 18 5 15 10 -7 11 8 14 19 3 11 -11 50 -11 63 -1
7 6 19 8 27 5 7 -3 19 0 26 6 10 9 11 9 6 0 -5 -9 9 -12 54 -12 33 1 60 5 60
9 0 4 7 11 16 14 8 3 12 2 9 -4 -9 -15 20 -12 110 9 97 24 148 44 138 56 -5 4
-2 5 5 1 15 -9 83 14 76 26 -3 4 2 5 10 2 23 -9 180 78 286 157 86 65 270 241
270 259 0 4 11 20 25 36 22 26 23 29 7 36 -14 5 -13 7 6 7 14 1 27 10 34 26 6
14 15 25 20 25 4 0 8 5 8 11 0 5 11 27 25 47 14 20 25 42 25 49 0 7 13 40 29
75 50 110 59 132 77 193 34 119 42 175 28 190 -8 7 -10 15 -4 17 16 6 19 55 4
83 -16 31 -19 48 -4 25 9 -13 10 -13 10 1 0 8 -5 20 -12 27 -9 9 -9 12 0 12 7
0 12 10 12 21 0 12 12 33 27 47 26 24 27 26 8 33 -19 7 -19 8 3 8 26 1 30 21
5 22 -15 0 -15 2 2 9 11 5 14 9 7 9 -6 1 -11 6 -10 13 3 14 -116 79 -152 83
-14 1 -37 7 -51 13 -14 6 -42 9 -61 7 -19 -2 -64 5 -100 15 -36 10 -89 18
-119 19 -101 2 -244 9 -303 16 -46 6 -57 4 -51 -6 5 -7 4 -10 -2 -6 -20 13
-146 17 -160 6 -7 -6 -13 -7 -13 -2 0 5 -38 10 -85 11 -76 1 -88 -2 -106 -21
-13 -14 -18 -16 -14 -6 5 14 -3 17 -49 18 -58 1 -78 -10 -49 -29 17 -11 17
-11 0 -6 -10 3 -23 6 -28 6 -5 0 -8 5 -6 11 1 8 -23 11 -78 10 -43 -2 -82 -4
-85 -6 -3 -2 -50 -6 -105 -10 -55 -3 -119 -11 -143 -16 -24 -5 -48 -7 -53 -3
-6 3 -7 -7 -4 -25 4 -25 2 -29 -10 -25 -11 5 -13 10 -5 19 13 16 -10 27 -31
14 -20 -13 -41 -11 -33 3 5 8 -3 10 -28 5 -51 -8 -59 1 -53 62 3 45 2 51 -11
40 -12 -10 -13 -9 -8 7 4 10 11 24 17 31 5 7 10 42 12 78 2 37 6 69 9 72 3 4
6 15 6 25 0 14 8 18 40 19 37 1 56 4 63 8 1 1 85 4 187 8 155 5 189 8 207 23
12 10 19 21 15 25 -4 5 -1 5 7 0 11 -6 9 -12 -10 -26 -24 -18 -24 -19 59 -19
46 0 81 3 79 8 -3 4 35 6 83 4 95 -4 89 -6 135 53 16 20 16 19 5 -2 -9 -19 -8
-22 6 -16 13 5 15 14 10 44 -3 22 -3 39 1 39 5 0 13 11 20 25 8 18 8 25 0 25
-7 0 -7 4 1 12 14 14 16 32 3 24 -5 -4 -7 4 -3 16 4 18 2 20 -16 16 -12 -4
-22 -2 -22 4 0 6 -9 8 -20 5 -11 -3 -18 -2 -15 3 3 4 -12 11 -33 15 -75 14
-90 14 -96 -1 -5 -12 -10 -13 -27 -3 -17 9 -24 8 -31 -2 -7 -11 -11 -11 -15
-1 -2 6 -9 10 -14 7 -5 -3 -63 -7 -129 -8 -66 -1 -120 -5 -120 -8 0 -12 -50
-17 -57 -6 -3 6 -1 7 5 3 7 -4 12 -2 12 5 0 8 -11 9 -37 4 -21 -4 -46 -9 -56
-10 -10 -1 -22 -6 -25 -11 -4 -5 -16 -16 -26 -24 -18 -14 -19 -14 -7 8 11 21
10 22 -24 22 -26 0 -34 -4 -29 -12 5 -10 4 -10 -6 -1 -7 6 -19 9 -26 6 -15 -6
-10 20 9 45 5 6 7 12 3 12 -4 0 1 11 10 25 13 20 13 25 3 25 -11 0 -11 2 1 10
8 5 11 10 5 10 -7 0 -7 3 0 8 15 10 35 49 35 67 0 8 5 15 12 15 6 0 8 3 5 6
-3 4 3 18 13 32 11 13 20 30 20 37 0 54 317 78 515 37 17 -3 47 -6 68 -6 20
-1 37 -4 37 -8 0 -3 26 -14 58 -24 31 -9 62 -21 69 -27 7 -5 17 -6 23 -2 5 3
10 2 10 -2 0 -5 21 -19 48 -32 140 -67 286 -184 422 -338 40 -46 76 -80 80
-78 5 3 10 0 12 -6 4 -12 60 12 83 35 32 31 40 96 13 96 -5 0 -6 5 -3 10 3 6
-4 14 -17 19 -13 6 -17 10 -9 10 11 1 11 4 1 16 -7 8 -10 15 -6 15 9 0 -60 97
-117 163 -31 36 -55 56 -64 53 -8 -3 -11 -1 -8 4 8 12 -34 60 -52 60 -7 0 -13
4 -13 9 0 8 -133 111 -144 111 -3 0 -22 11 -42 25 -20 14 -40 22 -45 19 -5 -3
-9 0 -9 7 0 7 -9 3 -20 -9 -12 -12 -26 -22 -33 -22 -8 0 -8 3 2 9 7 5 10 14 7
20 -4 6 0 11 10 11 30 0 4 15 -81 48 -125 48 -192 64 -214 52 -25 -13 -31 -13
-31 0 0 6 8 10 18 11 9 0 4 5 -12 9 -74 23 -205 31 -240 15 -14 -6 -17 -5 -12
3 5 9 -15 11 -76 10 -46 -1 -94 -3 -108 -5z m-10 -33 c0 -5 -7 -10 -15 -10 -8
0 -15 5 -15 10 0 6 7 10 15 10 8 0 15 -4 15 -10z m430 -11 c0 -6 -4 -7 -10 -4
-5 3 -10 11 -10 16 0 6 5 7 10 4 6 -3 10 -11 10 -16z m17 -35 c-3 -3 -12 -4
-19 -1 -8 3 -5 6 6 6 11 1 17 -2 13 -5z m40 -180 c-3 -3 -12 -4 -19 -1 -8 3
-5 6 6 6 11 1 17 -2 13 -5z m-520 -10 c-3 -3 -12 -4 -19 -1 -8 3 -5 6 6 6 11
1 17 -2 13 -5z m-307 -84 c0 -5 -2 -10 -4 -10 -3 0 -8 5 -11 10 -3 6 -1 10 4
10 6 0 11 -4 11 -10z m130 0 c0 -5 -4 -10 -10 -10 -5 0 -10 5 -10 10 0 6 5 10
10 10 6 0 10 -4 10 -10z m-141 -57 c-12 -21 -30 -50 -40 -64 -10 -14 -16 -29
-14 -33 3 -3 2 -4 -2 -1 -3 3 -12 -3 -19 -13 -11 -15 -10 -18 9 -24 22 -6 22
-6 -1 -7 -24 -1 -61 -36 -62 -57 0 -23 -27 -31 -113 -38 l-89 -6 36 43 c20 24
32 48 28 52 -4 5 -2 5 4 2 7 -4 17 0 23 7 10 11 8 15 -6 19 -10 3 -4 5 12 4
19 -1 29 2 28 11 -2 6 4 12 12 12 8 0 15 5 15 11 0 5 4 8 8 5 5 -3 19 5 33 17
13 12 37 28 52 36 15 8 26 20 23 27 -3 7 2 10 12 7 9 -2 26 3 37 11 32 25 36
19 14 -21z m465 -385 c-3 -4 -9 -8 -15 -8 -5 0 -9 4 -9 8 0 5 7 9 15 9 8 0 12
-4 9 -9z m170 -34 c5 -14 4 -15 -9 -4 -17 14 -19 20 -6 20 5 0 12 -7 15 -16z
m-481 -1 c-7 -2 -19 -2 -25 0 -7 3 -2 5 12 5 14 0 19 -2 13 -5z m322 -3 c3 -5
-1 -10 -9 -10 -9 0 -16 5 -16 10 0 6 4 10 9 10 6 0 13 -4 16 -10z m-1528 -36
c-3 -3 -12 -4 -19 -1 -8 3 -5 6 6 6 11 1 17 -2 13 -5z m720 -10 c14 -13 58
-10 76 5 21 17 35 -2 34 -47 -1 -23 -5 -42 -8 -42 -3 0 -9 -26 -13 -57 -4 -32
-9 -65 -10 -73 -2 -8 -6 -45 -11 -82 -7 -63 -9 -68 -32 -68 -13 0 -22 -4 -19
-8 3 -5 -14 -9 -37 -8 -46 0 -188 -30 -197 -42 -5 -6 -70 -13 -70 -7 0 43 45
239 69 300 37 95 50 112 78 112 63 0 127 5 116 10 -17 6 -17 24 -1 21 7 -2 18
-8 25 -14z m-777 -24 c0 -5 -5 -10 -11 -10 -5 0 -7 5 -4 10 3 6 8 10 11 10 2
0 4 -4 4 -10z m85 -50 c3 -6 -4 -10 -17 -10 -18 0 -20 2 -8 10 19 12 18 12 25
0z m-105 -4 c0 -2 -7 -7 -16 -10 -8 -3 -12 -2 -9 4 6 10 25 14 25 6z m2157
-212 c-3 -3 -12 -4 -19 -1 -8 3 -5 6 6 6 11 1 17 -2 13 -5z m48 -4 c-3 -5 -10
-10 -16 -10 -5 0 -9 5 -9 10 0 6 7 10 16 10 8 0 12 -4 9 -10z m-968 -69 c9 8
13 8 13 1 0 -16 -14 -22 -38 -15 -12 3 -19 10 -16 15 4 6 10 6 17 -1 7 -7 14
-7 24 0z m238 -11 c3 -6 -1 -7 -9 -4 -18 7 -21 14 -7 14 6 0 13 -4 16 -10z
m-855 -80 c0 -5 -5 -10 -11 -10 -5 0 -7 5 -4 10 3 6 8 10 11 10 2 0 4 -4 4
-10z m1485 -60 c3 -5 -3 -10 -15 -10 -12 0 -18 5 -15 10 3 6 10 10 15 10 5 0
12 -4 15 -10z m-691 -24 c-10 -8 -21 -12 -24 -10 -5 6 21 24 34 24 6 0 1 -6
-10 -14z m808 -16 c75 0 78 -1 74 -22 -2 -13 2 -29 8 -37 9 -12 8 -13 -3 -6
-11 6 -13 4 -8 -8 3 -9 2 -19 -3 -22 -6 -4 -10 -19 -10 -34 0 -16 -7 -46 -16
-66 -13 -31 -13 -39 -2 -46 10 -7 9 -9 -4 -9 -11 0 -19 -8 -19 -20 -1 -11 -2
-26 -3 -32 -1 -18 -17 -28 -46 -29 -23 0 -23 -1 -5 -9 32 -14 4 -11 -40 4 -22
7 -107 17 -190 21 -178 10 -196 10 -204 -2 -7 -10 -41 -13 -41 -4 0 4 -14 8
-31 9 -29 2 -31 1 -18 -15 13 -17 13 -17 -7 -1 -18 16 -41 17 -201 14 -100 -2
-190 -9 -201 -15 -10 -6 -23 -7 -27 -3 -5 4 -6 -1 -2 -10 3 -10 0 -19 -9 -22
-11 -4 -14 -1 -9 13 3 12 1 19 -7 18 -36 -1 -101 6 -87 10 11 3 15 11 12 23
-3 12 -10 17 -17 13 -8 -5 -8 -3 0 8 6 8 10 28 9 44 -1 17 -3 40 -4 53 0 13
-5 21 -10 18 -5 -3 -4 15 0 42 5 26 7 52 5 58 -5 14 34 62 40 48 5 -11 315
-10 394 1 19 3 83 6 143 6 59 1 109 4 111 8 2 3 82 5 178 4 95 -2 208 -3 250
-3z m506 -41 c55 -12 62 -16 62 -37 0 -24 -37 -172 -68 -270 -15 -50 -18 -53
-42 -47 -23 6 -135 22 -187 27 -13 1 -23 6 -23 10 0 4 -11 8 -25 8 -21 0 -25
4 -21 23 27 124 30 160 22 246 -3 29 -4 56 -2 60 6 10 214 -5 284 -20z m-1875
-66 c2 -24 0 -43 -5 -43 -5 0 -7 -8 -4 -18 7 -20 12 -61 21 -144 4 -40 3 -58
-5 -58 -6 0 -8 -5 -4 -11 4 -7 0 -9 -13 -5 -11 4 -59 -3 -107 -14 -128 -30
-154 -32 -151 -12 1 10 -5 35 -15 57 -9 22 -22 67 -29 100 -8 33 -17 75 -22
93 -9 38 -11 36 81 51 85 14 166 29 210 40 19 4 36 7 36 7 1 -1 4 -20 7 -43z
m194 -69 c-3 -3 -12 -4 -19 -1 -8 3 -5 6 6 6 11 1 17 -2 13 -5z m863 -154 c8
-5 11 -10 5 -10 -5 0 -17 5 -25 10 -8 5 -10 10 -5 10 6 0 17 -5 25 -10z m-456
-251 c-8 -14 -24 -10 -24 6 0 9 6 12 15 9 8 -4 12 -10 9 -15z m166 -27 c135
-1 265 -4 290 -8 25 -3 85 -8 135 -10 49 -3 91 -7 93 -9 6 -6 -31 -80 -116
-232 -52 -94 -86 -143 -114 -166 -22 -18 -43 -32 -47 -32 -34 -3 -81 -18 -91
-30 -8 -9 -21 -13 -31 -10 -11 4 -21 1 -24 -7 -4 -10 -29 -13 -98 -11 -105 2
-123 5 -139 21 -7 7 -26 12 -43 13 -29 1 -29 1 -5 9 24 8 24 8 3 9 -13 1 -23
6 -23 12 0 5 5 7 10 4 6 -3 10 -1 10 5 0 7 -9 14 -20 17 -11 3 -20 10 -20 15
0 5 5 6 10 3 19 -12 10 4 -25 42 -19 21 -35 42 -35 46 0 5 -4 5 -10 2 -5 -3
-10 1 -10 10 0 9 -5 13 -10 10 -6 -4 -10 -3 -8 2 3 15 -24 97 -50 151 -19 38
-31 51 -42 47 -12 -5 -12 -4 -3 6 10 10 9 15 -5 25 -10 8 -12 13 -4 14 6 0 12
9 12 20 0 11 -6 20 -12 21 -7 0 -4 4 7 8 11 5 44 7 73 6 29 -2 55 1 58 6 3 5
13 5 22 1 9 -5 127 -10 262 -10z m-850 -32 c0 -5 -4 -10 -10 -10 -5 0 -10 5
-10 10 0 6 5 10 10 10 6 0 10 -4 10 -10z m174 -3 c7 -7 11 -17 9 -23 -7 -21
69 -200 96 -224 4 -3 7 -20 8 -38 l1 -33 -26 17 c-46 29 -125 91 -175 139 -27
25 -53 45 -58 45 -5 0 -9 5 -9 11 0 7 -8 19 -18 28 -10 9 -25 27 -33 41 l-16
25 76 3 c42 2 78 7 79 12 5 14 51 12 66 -3z m1556 -36 l45 -6 -80 -82 c-76
-79 -179 -163 -197 -163 -5 0 3 22 18 49 14 28 24 57 21 65 -4 9 -1 15 5 13
10 -2 48 76 62 127 4 16 10 18 43 11 21 -4 58 -10 83 -14z m-2214 0 c-4 -5 0
-12 6 -14 7 -3 0 -6 -16 -6 -28 -1 -29 0 -10 14 22 17 27 18 20 6z m-61 -11
c-3 -5 -10 -10 -16 -10 -5 0 -9 5 -9 10 0 6 7 10 16 10 8 0 12 -4 9 -10z m862
-316 c-3 -3 -12 -4 -19 -1 -8 3 -5 6 6 6 11 1 17 -2 13 -5z m307 -50 c3 -8 2
-12 -4 -9 -6 3 -10 10 -10 16 0 14 7 11 14 -7z m-397 -180 c-3 -3 -12 -4 -19
-1 -8 3 -5 6 6 6 11 1 17 -2 13 -5z m133 -38 c0 -3 -4 -8 -10 -11 -5 -3 -10
-1 -10 4 0 6 5 11 10 11 6 0 10 -2 10 -4z m294 -85 c3 -5 -11 -9 -32 -9 -29 0
-32 2 -17 9 27 11 43 11 49 0z m303 3 c-3 -3 -12 -4 -19 -1 -8 3 -5 6 6 6 11
1 17 -2 13 -5z m-216 -22 c-7 -2 -18 1 -23 6 -8 8 -4 9 13 5 13 -4 18 -8 10
-11z"/>
<path d="M5771 2379 c-51 -10 -61 -17 -41 -29 12 -8 10 -10 -8 -10 -13 0 -20
4 -17 10 4 6 -1 7 -12 3 -41 -15 -48 -27 -48 -88 0 -60 0 -60 28 -57 19 2 27
-1 27 -12 0 -12 11 -15 48 -14 26 0 53 5 61 12 11 8 13 8 7 -1 -4 -8 -2 -13 6
-14 21 -1 50 -5 98 -14 66 -12 92 -16 120 -19 14 -2 32 -6 40 -9 8 -3 60 -13
115 -21 55 -8 112 -18 127 -21 20 -4 28 -1 31 12 4 16 5 16 6 1 1 -22 51 -33
148 -33 39 0 69 -4 66 -8 -3 -4 35 -7 84 -6 49 1 95 -1 103 -6 9 -6 11 -4 5 4
-6 10 -3 11 11 3 28 -14 105 -14 122 1 11 8 14 8 9 0 -11 -17 222 -23 239 -5
7 6 17 12 22 12 6 0 12 6 15 13 3 7 12 2 26 -15 13 -16 27 -28 33 -28 7 0 6 5
-1 14 -7 9 -8 17 -3 20 6 3 12 -1 16 -9 7 -19 26 -20 26 -1 0 9 8 12 25 8 21
-4 24 -1 18 14 -6 17 -5 17 10 5 13 -10 15 -17 6 -27 -8 -10 -8 -14 -1 -14 6
0 13 4 17 10 3 5 13 6 22 3 11 -5 14 -3 8 6 -4 8 2 7 17 -3 24 -15 25 -15 38
9 15 28 31 31 59 13 15 -9 26 -9 48 1 20 10 24 15 14 19 -8 3 -17 0 -19 -6 -5
-17 -42 -15 -48 3 -4 8 -18 15 -34 15 -42 0 -60 -9 -52 -28 5 -14 4 -15 -10
-2 -10 10 -13 19 -7 26 6 8 3 13 -12 17 -14 4 -19 2 -15 -8 2 -7 -2 -16 -10
-19 -9 -3 -12 -1 -9 4 7 11 -39 32 -64 29 -47 -4 -70 1 -65 16 4 8 11 12 17 8
6 -3 7 -1 3 6 -4 6 -22 11 -39 11 -53 0 -76 4 -71 12 8 13 -31 9 -45 -4 -10
-11 -12 -10 -9 2 2 11 -7 15 -32 16 -19 1 -100 11 -180 22 -196 27 -309 36
-290 23 8 -6 10 -11 4 -11 -5 0 -15 5 -21 11 -15 15 -138 38 -165 31 -14 -3
-19 -1 -14 6 7 12 -20 17 -71 14 -13 0 -23 4 -23 10 0 5 -6 8 -14 5 -7 -3 -19
0 -25 6 -8 8 -11 8 -11 -1 0 -16 -29 -15 -64 3 -48 25 -108 36 -125 22 -12 -9
-13 -9 -8 0 8 12 -48 33 -88 32 -11 0 -45 1 -75 4 -30 2 -75 0 -99 -4z m303
-51 c-3 -4 -9 -8 -15 -8 -5 0 -9 4 -9 8 0 5 7 9 15 9 8 0 12 -4 9 -9z m153
-34 c-3 -3 -12 -4 -19 -1 -8 3 -5 6 6 6 11 1 17 -2 13 -5z m733 -94 c0 -5 -8
-10 -17 -10 -15 0 -16 2 -3 10 19 12 20 12 20 0z m-550 -101 c0 -4 -7 -6 -15
-3 -8 4 -15 10 -15 15 0 4 7 6 15 3 8 -4 15 -10 15 -15z m115 -9 c-3 -5 -14
-10 -23 -9 -14 0 -13 2 3 9 27 11 27 11 20 0z m110 -10 c3 -5 1 -10 -4 -10 -6
0 -11 5 -11 10 0 6 2 10 4 10 3 0 8 -4 11 -10z"/>
<path d="M206 2176 c5 -12 0 -16 -19 -16 -34 0 -44 -28 -12 -36 14 -3 25 -10
25 -14 0 -5 -9 -6 -20 -3 -11 3 -20 0 -20 -6 0 -6 11 -11 24 -11 14 0 28 -5
32 -12 4 -7 3 -8 -4 -4 -7 4 -12 3 -12 -2 0 -12 25 -22 56 -22 13 0 23 -5 22
-11 -2 -6 11 -16 27 -22 17 -5 32 -13 35 -17 10 -16 83 -29 101 -19 14 7 17 6
14 -3 -8 -19 60 -37 167 -44 51 -3 97 -9 102 -12 5 -3 6 0 2 6 -4 7 -2 12 3
12 6 0 11 -5 11 -11 0 -8 18 -10 55 -7 30 3 55 1 55 -3 0 -9 26 -6 36 4 11 11
26 8 19 -3 -3 -5 0 -10 7 -11 7 0 22 -2 33 -5 11 -2 72 -6 135 -9 63 -3 158
-10 210 -16 152 -18 307 -25 345 -15 11 2 20 5 20 5 0 1 194 9 263 10 29 1 51
4 49 9 -3 4 11 8 30 9 43 2 130 33 145 51 16 18 21 82 8 82 -6 0 -9 4 -5 10 3
5 -3 18 -15 30 -11 11 -20 23 -19 26 0 3 -2 8 -5 11 -3 4 -6 1 -6 -5 0 -7 -7
-12 -15 -12 -8 0 -15 5 -15 10 0 6 -7 10 -15 10 -8 0 -15 -3 -15 -7 0 -5 -64
-9 -143 -10 -151 -3 -253 -9 -302 -17 -52 -8 -209 -7 -240 2 -16 5 -57 10 -90
11 -33 2 -76 4 -95 6 -19 2 -78 7 -130 10 -52 4 -108 11 -125 15 -46 14 -128
19 -147 9 -10 -6 -18 -6 -18 -1 0 4 -36 9 -80 10 -45 1 -78 -3 -75 -7 8 -14
-58 -1 -76 15 -18 16 -75 19 -84 4 -8 -13 -52 -13 -60 0 -4 6 1 7 11 3 11 -4
15 -2 11 4 -4 6 -21 13 -39 16 -18 3 -45 8 -59 11 -28 6 -46 -14 -32 -37 5 -8
2 -8 -8 0 -9 7 -20 9 -25 5 -5 -4 -1 1 9 11 16 14 16 17 4 17 -8 0 -23 3 -31
6 -12 5 -15 2 -10 -10z m984 -106 c0 -5 -5 -10 -11 -10 -5 0 -7 5 -4 10 3 6 8
10 11 10 2 0 4 -4 4 -10z m-832 -37 c-10 -2 -26 -2 -35 0 -10 3 -2 5 17 5 19
0 27 -2 18 -5z"/>
<path d="M117 2139 c-4 -16 -3 -18 9 -8 16 13 19 29 5 29 -5 0 -11 -9 -14 -21z"/>
<path d="M7455 2079 c-10 -15 1 -23 20 -15 9 3 13 10 10 16 -8 13 -22 13 -30
-1z"/>
<path d="M7175 2050 c3 -5 13 -10 21 -10 8 0 14 5 14 10 0 6 -9 10 -21 10 -11
0 -17 -4 -14 -10z"/>
<path d="M5838 1663 c-27 -4 -40 -23 -17 -23 8 0 8 -4 2 -12 -18 -24 -15 -92
4 -115 17 -19 123 -59 123 -46 0 3 6 1 13 -4 24 -19 126 -55 136 -48 6 3 11 2
11 -3 0 -5 10 -12 23 -15 12 -2 65 -16 117 -31 99 -27 176 -39 247 -40 23 0
39 -4 37 -8 -3 -5 10 -9 28 -9 38 -2 47 -3 148 -24 41 -9 84 -15 95 -13 11 1
26 -2 34 -6 22 -14 210 -19 191 -5 -12 9 -11 9 5 4 11 -5 33 -10 49 -13 23 -4
27 -2 21 9 -8 12 -6 12 8 1 9 -8 21 -11 28 -7 6 4 61 7 121 6 61 0 116 2 122
6 6 4 23 6 38 4 22 -2 27 1 22 13 -3 9 -1 16 5 16 6 0 11 -4 11 -10 0 -14 27
-13 32 1 2 6 27 12 55 12 31 0 49 5 46 10 -3 6 -1 7 5 3 7 -4 17 -4 23 0 8 4
7 9 -2 15 -10 6 -5 9 15 9 25 0 27 2 15 17 -8 9 -9 14 -2 10 6 -4 24 -2 40 4
15 6 22 13 16 16 -7 3 -13 11 -13 19 0 11 -12 14 -49 12 -27 -2 -49 -7 -48
-12 1 -5 -4 -11 -11 -13 -8 -3 -10 1 -5 13 5 14 2 16 -20 12 -15 -3 -24 -1
-21 3 3 5 -2 9 -11 9 -9 0 -13 -4 -10 -10 3 -5 -3 -10 -15 -10 -12 0 -18 5
-15 10 3 6 -5 10 -19 10 -18 0 -24 -4 -20 -14 4 -11 0 -13 -17 -9 -15 4 -20 3
-15 -5 4 -7 2 -12 -3 -12 -15 0 -14 27 2 33 6 3 -19 6 -56 6 -49 1 -66 -2 -61
-11 5 -7 3 -8 -7 -2 -18 11 -32 12 -223 24 -87 5 -197 19 -245 30 -47 11 -113
24 -146 30 -212 34 -252 39 -272 35 -12 -3 -23 0 -25 6 -2 6 -30 17 -63 24
-33 8 -91 24 -130 35 -38 12 -81 24 -95 27 -14 4 -27 10 -31 14 -13 21 -145
33 -221 22z m199 -39 c-3 -3 -12 -4 -19 -1 -8 3 -5 6 6 6 11 1 17 -2 13 -5z
m43 -8 c0 -2 -8 -10 -17 -17 -16 -13 -17 -12 -4 4 13 16 21 21 21 13z m541
-299 c-7 -7 -14 -8 -21 -1 -6 6 -2 10 12 11 16 2 18 -1 9 -10z"/>
<path d="M236 1526 c5 -12 2 -15 -10 -10 -12 5 -19 -2 -27 -24 -8 -23 -15 -29
-27 -24 -15 5 -15 4 1 -12 9 -10 15 -22 12 -27 -4 -5 1 -9 9 -9 9 0 16 -4 16
-10 0 -5 12 -13 28 -16 31 -8 72 -32 88 -53 6 -8 20 -12 33 -8 11 3 21 1 21
-3 0 -5 15 -11 33 -15 17 -4 42 -13 55 -21 12 -8 22 -10 22 -4 0 5 4 10 10 10
5 0 7 -6 4 -14 -5 -14 40 -31 79 -29 10 0 15 -2 12 -6 -6 -6 228 -49 273 -50
14 -1 21 3 16 10 -4 8 -1 8 13 1 22 -12 244 -35 265 -27 7 3 92 7 188 9 110 3
201 10 245 20 39 9 89 17 113 18 24 1 45 5 48 10 3 5 19 6 35 3 19 -4 29 -3
29 5 0 8 9 10 25 6 18 -5 25 -2 25 9 0 8 5 15 10 15 6 0 10 18 10 41 0 22 -4
38 -9 35 -5 -4 -7 3 -4 14 3 11 1 21 -3 21 -5 1 -20 3 -34 5 -14 1 -38 5 -55
8 -16 3 -84 5 -150 4 -267 -4 -552 1 -570 11 -27 15 -225 25 -225 12 0 -6 -4
-11 -10 -11 -5 0 -7 6 -4 13 4 11 -12 15 -68 20 -40 3 -85 4 -100 2 -16 -2
-28 1 -28 7 0 6 -14 8 -37 4 -24 -4 -33 -3 -25 2 21 14 -44 36 -109 37 -31 0
-63 6 -71 13 -8 6 -47 14 -86 18 -63 5 -71 3 -66 -10z m309 -226 c3 -5 1 -10
-4 -10 -6 0 -11 5 -11 10 0 6 2 10 4 10 3 0 8 -4 11 -10z m485 -90 c8 -5 11
-10 5 -10 -5 0 -17 5 -25 10 -8 5 -10 10 -5 10 6 0 17 -5 25 -10z"/>
<path d="M1910 1332 c9 -19 30 -23 30 -5 0 4 -3 3 -7 0 -3 -4 -12 1 -20 11
-13 15 -13 15 -3 -6z"/>
<path d="M5820 911 c0 -11 6 -22 13 -24 9 -4 9 -6 -1 -6 -8 -1 -16 8 -19 19
-3 11 -13 20 -22 19 -10 0 -11 -2 -3 -6 19 -8 14 -23 -8 -23 -18 0 -20 -5 -17
-40 2 -22 2 -42 -1 -45 -3 -3 -7 -15 -9 -26 -2 -15 6 -24 30 -34 18 -7 45 -26
62 -41 40 -37 122 -77 146 -71 10 3 17 2 14 -3 -6 -10 42 -23 55 -15 6 4 10 2
10 -3 0 -5 17 -14 38 -20 20 -6 84 -27 142 -47 111 -38 372 -97 380 -86 6 9
22 8 38 -2 6 -5 12 -5 12 -1 0 3 6 2 13 -4 36 -30 412 -51 439 -24 12 12 41 5
33 -8 -3 -5 16 -6 42 -3 27 3 65 5 85 4 20 -1 39 3 43 9 3 5 29 10 56 10 28 0
48 4 45 9 -8 12 3 41 15 41 4 0 6 -7 3 -15 -4 -9 0 -15 10 -15 10 0 13 5 9 17
-4 9 -2 14 3 10 6 -3 16 -2 23 2 10 6 8 12 -6 26 -17 18 -17 18 9 12 l27 -7
-26 39 c-30 46 -45 49 -261 57 -74 3 -144 9 -154 15 -10 5 -33 9 -50 9 -18 -1
-48 2 -67 5 -22 3 -38 1 -43 -7 -6 -10 -8 -9 -8 3 0 19 -135 50 -192 44 -21
-2 -38 0 -38 4 0 5 -17 11 -37 14 -21 4 -60 11 -87 17 -37 7 -53 7 -64 -3 -13
-10 -15 -9 -9 6 4 11 2 17 -6 16 -6 -2 -31 3 -53 9 -23 7 -60 13 -82 14 -23 1
-39 4 -37 8 6 9 -82 40 -122 42 -7 1 -13 5 -13 9 0 7 -36 15 -110 23 -31 4
-130 47 -130 57 0 10 -66 29 -97 29 -16 0 -23 -6 -23 -19z m520 -191 c0 -5 -5
-10 -11 -10 -5 0 -7 5 -4 10 3 6 8 10 11 10 2 0 4 -4 4 -10z m240 -14 c0 -11
-19 -15 -25 -6 -3 5 1 10 9 10 9 0 16 -2 16 -4z m903 -146 c3 -11 1 -18 -4
-14 -5 3 -9 12 -9 20 0 20 7 17 13 -6z m-1188 -10 c3 -5 2 -10 -4 -10 -5 0
-13 5 -16 10 -3 6 -2 10 4 10 5 0 13 -4 16 -10z m1076 -13 c-10 -9 -11 -8 -5
6 3 10 9 15 12 12 3 -3 0 -11 -7 -18z m-724 -53 c-3 -3 -12 -4 -19 -1 -8 3 -5
6 6 6 11 1 17 -2 13 -5z m423 -10 c0 -2 -19 -4 -42 -3 -35 1 -38 2 -18 8 23 7
60 4 60 -5z m157 10 c-3 -3 -12 -4 -19 -1 -8 3 -5 6 6 6 11 1 17 -2 13 -5z
m-192 -34 c3 -5 1 -10 -4 -10 -6 0 -11 5 -11 10 0 6 2 10 4 10 3 0 8 -4 11
-10z m348 3 c-7 -2 -19 -2 -25 0 -7 3 -2 5 12 5 14 0 19 -2 13 -5z m-382 -21
c-7 -2 -18 1 -23 6 -8 8 -4 9 13 5 13 -4 18 -8 10 -11z"/>
<path d="M485 810 c3 -5 -3 -10 -14 -10 -25 0 -26 -8 -4 -32 15 -17 15 -20 3
-28 -12 -8 -10 -10 8 -10 12 0 22 -5 22 -11 0 -5 5 -7 10 -4 6 3 10 -2 10 -12
1 -18 60 -70 75 -64 4 1 11 -2 14 -7 7 -10 70 -45 86 -47 6 -1 17 -4 25 -8 50
-22 278 -76 390 -91 19 -3 62 -10 95 -17 82 -15 461 4 449 22 -3 5 0 9 5 9 6
0 11 -4 11 -8 0 -13 123 9 143 26 9 8 17 10 17 4 0 -11 19 -8 90 14 25 7 59
16 75 18 62 11 85 18 81 24 -2 4 11 8 29 9 19 1 51 13 72 27 21 14 47 26 58
26 16 0 17 2 5 9 -8 6 -18 7 -22 5 -4 -3 -5 1 -2 9 3 8 18 17 35 21 21 4 29
11 29 26 0 11 -7 23 -15 26 -8 4 -15 12 -15 20 0 8 -7 14 -15 14 -8 0 -15 5
-15 11 0 8 -4 9 -13 0 -8 -6 -17 -8 -20 -4 -9 8 -57 11 -52 3 2 -3 -15 -6 -38
-6 -68 0 -177 -16 -177 -26 0 -5 -4 -7 -9 -4 -4 3 -50 -1 -102 -8 -133 -19
-342 -31 -494 -28 -259 4 -310 7 -317 16 -3 5 -26 10 -51 12 -25 1 -61 7 -80
12 -25 7 -39 6 -48 -2 -9 -8 -10 -8 -5 2 5 8 -1 12 -21 12 -16 0 -56 7 -88 16
-33 9 -67 17 -75 19 -8 2 -15 4 -15 5 0 1 -8 3 -17 5 -10 2 -18 -1 -18 -6 0
-10 -40 -12 -64 -3 -9 3 -13 10 -10 15 3 5 -2 9 -11 9 -9 0 -13 -4 -10 -10z
m32 -36 c-3 -3 -12 -4 -19 -1 -8 3 -5 6 6 6 11 1 17 -2 13 -5z m188 -14 c3 -5
1 -10 -4 -10 -6 0 -11 5 -11 10 0 6 2 10 4 10 3 0 8 -4 11 -10z m56 -17 c13
-16 12 -17 -3 -4 -10 7 -18 15 -18 17 0 8 8 3 21 -13z m409 -253 c0 -5 -2 -10
-4 -10 -3 0 -8 5 -11 10 -3 6 -1 10 4 10 6 0 11 -4 11 -10z"/>
<path d="M540 809 c0 -5 5 -7 10 -4 6 3 10 8 10 11 0 2 -4 4 -10 4 -5 0 -10
-5 -10 -11z"/>
<path d="M2238 663 c7 -3 16 -2 19 1 4 3 -2 6 -13 5 -11 0 -14 -3 -6 -6z"/>
</g>
</svg>
